<svg fill="none" xmlns="http://www.w3.org/2000/svg" viewBox="0 0 170 56">
  <path d="M27.9656 56c15.4449 0 27.9655-12.536 27.9655-28S43.4105 0 27.9656 0C12.5206 0 0 12.536 0 28s12.5206 28 27.9656 28Z" fill="#FEFAD8"/>
  <path d="M27.9364 52.5178c13.5399 0 24.5297-10.9763 24.5463-24.5162.0167-13.54-10.9461-24.5162-24.486-24.5162-13.5399 0-24.5297 10.9762-24.5464 24.5162-.0167 13.5399 10.9461 24.5162 24.4861 24.5162Z" fill="#0D2B3C"/>
  <path d="M27.9684 3.9762c4.7458 0 9.385 1.409 13.331 4.049A24.0182 24.0182 0 0 1 50.137 18.807a24.0523 24.0523 0 0 1 1.3654 13.8809 24.034 24.034 0 0 1-6.567 12.301 23.9852 23.9852 0 0 1-12.2859 6.5749 23.9675 23.9675 0 0 1-13.8638-1.3672A24.0022 24.0022 0 0 1 8.0171 41.348a24.0458 24.0458 0 0 1-4.0438-13.3475c0-3.1549.6207-6.279 1.8265-9.1938a24.0267 24.0267 0 0 1 5.2015-7.7941 23.9943 23.9943 0 0 1 7.7846-5.2078 23.969 23.969 0 0 1 9.1825-1.8287Zm0-1.0133A24.9856 24.9856 0 0 0 14.075 7.1824a25.0315 25.0315 0 0 0-9.2104 11.2367 25.0669 25.0669 0 0 0-1.4232 14.4664 25.0474 25.0474 0 0 0 6.844 12.8199 24.9973 24.9973 0 0 0 12.8041 6.8524 24.9786 24.9786 0 0 0 14.4486-1.4249 25.0138 25.0138 0 0 0 11.2229-9.2218 25.0595 25.0595 0 0 0 4.2143-13.9105c-.0075-6.6381-2.6445-13.0022-7.3326-17.696-4.6881-4.6939-11.0443-7.3342-17.6743-7.3417Z" fill="#0D2B3C"/>
  <path d="M4.4357 23.286a24.1717 24.1717 0 0 0-.463 4.7139c0 .4256.011.8484.0331 1.2684 1.4749.0253 2.7456-.2736 3.6286-1.044 4.3814-3.8238 12.6735-2.7396 12.6735-2.7396s-2.5464-4.4012-15.8722-2.1987Z" fill="#40B9BC"/>
  <path d="M6.7813 16.7149C19.193 12.8928 22.37 19.2837 23.034 21.3461c0 0 .7591-11.6663-8.7994-13.0468a24.1235 24.1235 0 0 0-7.4534 8.4156Z" fill="#BE1D43"/>
  <path d="M27.8704 18.0107s1.2988-8.1785 3.6003-13.779a24.1868 24.1868 0 0 0-7.1895.0253c2.2947 5.6008 3.5892 13.7537 3.5892 13.7537Z" fill="#EF7B1A"/>
  <path d="M41.6681 8.2773c-9.7303 1.271-8.9624 13.0684-8.9624 13.0684.668-2.0754 3.8801-8.5334 16.4848-4.5601a24.1265 24.1265 0 0 0-7.5224-8.5083Z" fill="#BE1D43"/>
  <path d="M51.5023 23.3185c-13.5021-2.28-16.0726 2.1657-16.0726 2.1657s8.2921-1.0842 12.6734 2.7396c.9216.8041 2.2659 1.0939 3.823 1.0387a24.57 24.57 0 0 0 .0329-1.2624 24.1633 24.1633 0 0 0-.4567-4.6816Z" fill="#40B9BC"/>
  <path d="M27.9679 52.0251c.6672 0 1.3276-.0287 1.9812-.0821-1.5832-2.7505-1.672-6.9384-1.672-9.5287 0 0 1.5867 7.068 3.5213 9.3047a23.9706 23.9706 0 0 0 8.833-3.3096 24.002 24.002 0 0 0 6.8763-6.4628c-.6697-.6394-2.137-1.5129-4.1392.304 0 0 .8813-3.4857 4.8368-1.8567a4.8317 4.8317 0 0 0-2.8567-2.8407 4.822 4.822 0 0 0-4.0139.3154 4.8297 4.8297 0 0 0-1.5444 1.3658 4.8375 4.8375 0 0 0-.8081 3.9492 4.835 4.835 0 0 0 .8834 1.8638 4.8273 4.8273 0 0 0-3.0269 1.9429 2.4148 2.4148 0 0 0-.4959-1.1224 2.4107 2.4107 0 0 0-.983-.7331 2.408 2.408 0 0 0-2.3506.3101 9.2469 9.2469 0 0 1-1.6953-1.9922c-1.5265-2.2925-2.1876-5.7827-2.4399-7.7825a1.0135 1.0135 0 0 0-.337-.6274 1.011 1.011 0 0 0-1.332 0 1.0135 1.0135 0 0 0-.337.6274c-.253 1.9998-1.088 5.49-2.615 7.7825-1.9483 2.9245-3.3103 3.2174-4.1218 0l-.0149.0035a5.751 5.751 0 0 0-1.9616-2.9535 5.7394 5.7394 0 0 0-3.3192-1.2395 5.7389 5.7389 0 0 0-3.4142.9462 5.7495 5.7495 0 0 0-2.2104 2.7718 24.1627 24.1627 0 0 0 2.758 2.9215c2.9973-2.5934 5.5331.9295 5.5331.9295-2.156-.9908-3.6316-.722-4.6015-.1363a23.8883 23.8883 0 0 0 10.0628 4.8038c1.5665-1.8023 3.0745-5.1542 3.0745-5.1542 0 1.1357-.6528 3.7747-1.6193 5.4169a24.1642 24.1642 0 0 0 3.5494.2627Z" fill="#FCC009"/>
  <path d="M28.6403 20.7141a1.0317 1.0317 0 0 0-.7692-.3425v5.1123c.4275 0 .8374.17 1.1397.4727a1.615 1.615 0 0 1 0 2.2822 1.6109 1.6109 0 0 1-1.1397.4726v3.3625h.1012c2.1958.0507 4.2387 4.9589 5.8729 3.8338 1.5637-1.0757.2306-9.167-5.2049-15.1936Z" fill="#FEFAD8"/>
  <path d="M27.0979 20.7141a1.0317 1.0317 0 0 1 .7692-.3425v5.1123c-.4275 0-.8374.17-1.1397.4727a1.6147 1.6147 0 0 0 0 2.2822 1.6109 1.6109 0 0 0 1.1397.4726v3.3625h-.1012c-2.1958.0507-4.2387 4.9589-5.873 3.8338-1.5647-1.0757-.2312-9.167 5.205-15.1936Z" fill="#FAE1B6"/>
  <path d="M70.6484 37.2709V17.6191h4.8525v19.6518h-4.8525Zm2.6166 0v-4.2028h4.3616a5.9254 5.9254 0 0 0 2.5626-.5067 4.6528 4.6528 0 0 0 1.7447-1.4055 6.1267 6.1267 0 0 0 1.0087-2.0746 9.3184 9.3184 0 0 0 .3275-2.511c0-1.5102-.3953-2.6793-1.186-3.5072-.7906-.8279-2.0856-1.2417-3.8851-1.2414h-4.934v-4.2026h4.934c3.3077 0 5.802.7685 7.4829 2.3054 1.6809 1.5369 2.5216 3.7342 2.5219 6.5918a13.4937 13.4937 0 0 1-.6128 4.0939 9.6794 9.6794 0 0 1-1.9091 3.4391 8.8477 8.8477 0 0 1-3.3387 2.3611c-1.3638.573-3.0176.8595-4.9615.8595l-4.1167.001Zm24.3966.3263c-2.3989 0-4.2071-.3594-5.4249-1.0782-1.2177-.7188-1.8265-1.9517-1.8265-3.6987 0-1.1096.2771-2.0102.8314-2.7018a4.7354 4.7354 0 0 1 2.3025-1.5152 10.8706 10.8706 0 0 1 3.3536-.4776 12.121 12.121 0 0 1 1.6899.109c.5091.0734.9905.1645 1.4444.273v2.8121a7.072 7.072 0 0 0-1.0899-.2458 8.2995 8.2995 0 0 0-1.3084-.1092c-.963 0-1.6765.1364-2.1405.4092a1.4585 1.4585 0 0 0-.6946 1.365c0 .6372.2315 1.0829.6946 1.3371a4.1606 4.1606 0 0 0 1.9768.3825 7.4425 7.4425 0 0 0 1.635-.1773 3.2298 3.2298 0 0 0 1.336-.6144l-.5442 1.3376a7.2795 7.2795 0 0 1-.3004-.7916 4.7901 4.7901 0 0 1-.1639-.7507 8.7896 8.7896 0 0 1-.0683-.955c-.0083-.3728-.0125-.8415-.0127-1.4061v-2.8662a3.2176 3.2176 0 0 0-.3823-1.7191 1.8701 1.8701 0 0 0-1.1581-.8054 7.7936 7.7936 0 0 0-1.9483-.2044 11.5732 11.5732 0 0 0-2.2225.2044 7.7321 7.7321 0 0 0-1.7034.5049h-.2725v-3.6571a18.0564 18.0564 0 0 1 4.7707-.6281 14.5208 14.5208 0 0 1 3.053.3002 6.5173 6.5173 0 0 1 2.4129 1.0235 4.5911 4.5911 0 0 1 1.568 1.9928 8.3463 8.3463 0 0 1 .546 3.2614v3.3027c0 .3821.009.855.027 1.4187.017.5638.045 1.1187.082 1.6649.02.4419.084.8807.19 1.31l-.108.2189c-.66.2438-1.334.4487-2.018.6136a20.694 20.694 0 0 1-2.208.4099 17.8665 17.8665 0 0 1-2.3184.1505Zm15.1814 6.2247a17.8938 17.8938 0 0 1-2.33-.1639 6.989 6.989 0 0 1-2.004-.5191v-3.7937h.382a6.9735 6.9735 0 0 0 1.717.5067c.612.1125 1.232.1719 1.854.1773a8.5221 8.5221 0 0 0 2.386-.2999 3.1222 3.1222 0 0 0 1.594-1.0101c.381-.4739.572-1.1291.572-1.9656v-8.8711c0-.6556.027-1.2562.081-1.8017.011-.4038.124-.7982.328-1.1469l.408.8467a7.0923 7.0923 0 0 1-.776-.0955 8.7254 8.7254 0 0 0-1.349-.096 4.1857 4.1857 0 0 0-2.194.5188 3.0338 3.0338 0 0 0-1.254 1.4468 5.3164 5.3164 0 0 0-.396 2.1027c0 1.2922.309 2.2838.927 2.9749.618.6911 1.59 1.0368 2.917 1.0372.259-.0004.519-.014.777-.0408.321-.0413.636-.1193.94-.2323l-.027 3.5214c-.491.0912-.931.1547-1.323.191-.391.0362-.759.055-1.103.055a10.1266 10.1266 0 0 1-4.226-.8191 6.0842 6.0842 0 0 1-2.78-2.4703c-.654-1.1005-.981-2.4786-.981-4.1344a8.1952 8.1952 0 0 1 .68-3.4667 6.4057 6.4057 0 0 1 1.923-2.429 8.5967 8.5967 0 0 1 2.905-1.4333 12.9962 12.9962 0 0 1 3.597-.4776 13.604 13.604 0 0 1 3.353.3821c.852.204 1.683.4872 2.482.8461l.108.2186c-.085.4319-.135.87-.15 1.31a49.789 49.789 0 0 0-.054 1.6649 92.3843 92.3843 0 0 0-.014 1.42v8.3786c0 1.7647-.377 3.2114-1.132 4.3399a6.7174 6.7174 0 0 1-3.148 2.5108 12.4053 12.4053 0 0 1-4.69.8175Zm18.021 0a17.909 17.909 0 0 1-2.331-.1639 6.9824 6.9824 0 0 1-2.003-.5191v-3.7937h.382a6.9478 6.9478 0 0 0 1.717.5067 10.748 10.748 0 0 0 1.853.1773 8.5106 8.5106 0 0 0 2.385-.3 3.11 3.11 0 0 0 1.594-1.01c.382-.4739.573-1.1291.574-1.9656v-8.8711c0-.6556.027-1.2562.081-1.8017.011-.4039.123-.7985.328-1.1469l.408.8467a7.032 7.032 0 0 1-.777-.0955 8.7383 8.7383 0 0 0-1.35-.0961 4.1919 4.1919 0 0 0-2.194.5189 3.0418 3.0418 0 0 0-1.254 1.4468 5.297 5.297 0 0 0-.394 2.1027c0 1.2922.308 2.2838.926 2.9749.618.6911 1.59 1.0368 2.916 1.0371.26-.0002.519-.0139.778-.0407.321-.0415.637-.1194.941-.2323l-.028 3.5213c-.491.0912-.931.1549-1.322.191-.392.037-.759.055-1.105.055a10.1126 10.1126 0 0 1-4.224-.819 6.0738 6.0738 0 0 1-2.781-2.4703c-.654-1.1005-.982-2.4786-.982-4.1344a8.196 8.196 0 0 1 .682-3.4667 6.4057 6.4057 0 0 1 1.923-2.429 8.5821 8.5821 0 0 1 2.903-1.4334 13.0215 13.0215 0 0 1 3.599-.4775 13.6285 13.6285 0 0 1 3.353.382c.851.2038 1.681.4871 2.48.8462l.109.2186c-.085.4319-.136.87-.152 1.31a49.7802 49.7802 0 0 0-.054 1.6649 92.3727 92.3727 0 0 0-.014 1.42v8.3786c0 1.7647-.377 3.2113-1.131 4.3399a6.7151 6.7151 0 0 1-3.149 2.5108 12.3974 12.3974 0 0 1-4.687.8175Zm21.15-6.2513a14.5278 14.5278 0 0 1-3.666-.4355 7.878 7.878 0 0 1-2.862-1.3513 5.8852 5.8852 0 0 1-1.826-2.4155 9.1527 9.1527 0 0 1-.641-3.6027 8.9413 8.9413 0 0 1 .927-4.2173 6.3322 6.3322 0 0 1 2.644-2.6884 8.4175 8.4175 0 0 1 4.061-.928c1.69 0 3.071.3547 4.143 1.064a6.0331 6.0331 0 0 1 2.332 2.9207 9.8961 9.8961 0 0 1 .585 4.2036l-.027.9822h-11.721v-2.8373h7.142v-.1368c0-.9095-.204-1.6146-.612-2.1154-.408-.5007-1.049-.751-1.923-.7506a2.7032 2.7032 0 0 0-1.459.382 2.4734 2.4734 0 0 0-.954 1.2695 6.92 6.92 0 0 0-.341 2.4153v.8737c0 .9646.195 1.7151.585 2.2517a3.174 3.174 0 0 0 1.623 1.1461 7.7562 7.7562 0 0 0 2.426.3412c.775.0066 1.547-.0758 2.303-.2457a6.1869 6.1869 0 0 0 1.622-.5731h.271v3.7395a9.5007 9.5007 0 0 1-1.948.5184c-.888.1365-1.786.2-2.684.1897Zm8.887-.299v-9.6075c0-.3633-.004-.8318-.012-1.4055a24.6205 24.6205 0 0 0-.083-1.6926c-.03-.4446-.09-.8867-.177-1.3237l.081-.2181a16.209 16.209 0 0 1 1.787-.4917c.662-.1454 1.398-.2682 2.208-.3684.882-.104 1.769-.154 2.657-.1497.273 0 .641.0091 1.105.0271.498.0221.994.0769 1.485.1639v3.7666h-.299a9.7909 9.7909 0 0 0-.995-.1773 8.2124 8.2124 0 0 0-1.049-.0684 9.0917 9.0917 0 0 0-1.69.1502 6.0023 6.0023 0 0 0-1.337.3957l.655-1.064c.309.4368.463 1.3649.463 2.7845v9.2797l-4.799-.0008Z" fill="#FEFAD8"/>
</svg>
